<svg width="64" height="63" viewBox="0 0 64 63" fill="none" xmlns="http://www.w3.org/2000/svg">
<g id="Emoji">
<path id="Vector" d="M48.8612 22.6157C42.6493 12.9724 29.8489 10.2244 20.2721 16.4794C10.6942 22.735 7.96624 35.6236 14.1788 45.2681C20.3913 54.9125 33.191 57.6594 42.7689 51.4037C52.3457 45.1487 55.0737 32.2601 48.8612 22.6157Z" fill="#F4900C"/>
<path id="Vector_2" d="M31.8953 15.7817C31.9939 15.3158 32.5987 15.0261 33.4013 14.9785C35.0072 9.82189 40.0061 5.17365 40.2331 4.9652C40.7463 4.4962 41.535 4.53139 42.0015 5.04465C42.468 5.5579 42.434 6.35592 41.9233 6.82634C41.8737 6.87225 37.3198 11.1171 35.8575 15.5394C36.5045 15.9062 36.89 16.3912 36.7955 16.8333C36.6522 17.5148 35.4376 17.8314 34.0843 17.541C32.7318 17.2516 31.752 16.4632 31.8953 15.7817Z" fill="#662113"/>
<path id="Vector_3" d="M17.3312 15.3934C17.3312 15.3934 23.5393 17.8311 28.3051 16.1543C31.9317 14.8787 36.1404 12.2351 35.9283 10.9903C35.7159 9.74728 31.5922 7.90286 27.0293 8.69385C22.4671 9.48589 17.3312 15.3934 17.3312 15.3934Z" fill="#5C913B"/>
</g>
</svg>
