<svg id="Layer_1" data-name="Layer 1" xmlns="http://www.w3.org/2000/svg" viewBox="0 0 1362.55 1760.89"><defs><style>.cls-1{fill:#f19014;}.cls-2{fill:#662113;}.cls-3{fill:#5c913b;}.cls-4{opacity:0.54;}.cls-5{opacity:0.88;}</style></defs><title>contact_form_paralax_background</title><g id="Emoji"><path id="Vector" class="cls-1" d="M1358.18,1355.19a72.22,72.22,0,0,0-102.46-5,73.33,73.33,0,0,0-4.69,103.13,72.22,72.22,0,0,0,102.47,5A73.32,73.32,0,0,0,1358.18,1355.19Z" transform="translate(-27.36 111.06)"/><path id="Vector_2" data-name="Vector 2" class="cls-2" d="M1295.56,1341.2c.07-1.67,2-3,4.75-3.64,2.62-18.76,17.28-37.7,17.94-38.56a4.38,4.38,0,0,1,6.17-.73,4.44,4.44,0,0,1,.74,6.21c-.14.19-13.49,17.48-16,33.62,2.45.9,4.06,2.36,4,4-.11,2.44-4.13,4.23-9,4S1295.45,1343.64,1295.56,1341.2Z" transform="translate(-27.36 111.06)"/><path id="Vector_3" data-name="Vector 3" class="cls-3" d="M1244.92,1348.16s22.88,4.9,38.42-3.62c11.83-6.49,24.89-18,23.45-22.22s-16.77-8.22-32.12-2.88S1244.92,1348.16,1244.92,1348.16Z" transform="translate(-27.36 111.06)"/></g><g id="Emoji-2" data-name="Emoji"><path id="Vector-2" data-name="Vector" class="cls-1" d="M572.27,1641.63a84.84,84.84,0,0,0,113.32-41.05c20-42.86,1.63-94-41-114.16a84.84,84.84,0,0,0-113.32,41C511.31,1570.33,529.66,1621.44,572.27,1641.63Z" transform="translate(-27.36 111.06)"/><path id="Vector_2-2" data-name="Vector 2" class="cls-2" d="M588.79,1498.48c-5.36,1.94-10.5,1.33-11.46-1.37-.64-1.76.67-3.95,3.1-5.81-8.44-17.24-29.41-32-29.64-32.19a5.22,5.22,0,0,1-1.32-7.23,5.14,5.14,0,0,1,7.18-1.32c1,.73,24.06,16.91,33.5,37.07,3.3-.25,5.94.59,6.6,2.44C597.72,1492.77,594.16,1496.54,588.79,1498.48Z" transform="translate(-27.36 111.06)"/><path id="Vector_3-2" data-name="Vector 3" class="cls-3" d="M612.66,1458.4c-19.08-.67-34.89,9.17-35.06,14.36s18.5,13.64,34,16.83c20.4,4.18,44.39-9.25,44.39-9.25S631.73,1459.09,612.66,1458.4Z" transform="translate(-27.36 111.06)"/></g><g id="Emoji-3" data-name="Emoji" class="cls-4"><path id="Vector-3" data-name="Vector" class="cls-1" d="M263.36,1112.53A67.94,67.94,0,0,0,338.52,1052a69,69,0,0,0-60.72-75.81,67.94,67.94,0,0,0-75.16,60.55A69,69,0,0,0,263.36,1112.53Z" transform="translate(-27.36 111.06)"/><path id="Vector_2-3" data-name="Vector 2" class="cls-2" d="M238.66,999.81c-3.56,2.87-7.61,3.74-9,2-.93-1.17-.51-3.17.85-5.21-10.88-10.87-30.61-16.61-30.83-16.68a4.18,4.18,0,0,1-2.87-5.13,4.1,4.1,0,0,1,5.09-2.86c1,.27,22.62,6.55,35,19.37,2.44-1.06,4.65-1.1,5.64.13C243.93,993.17,242.21,997,238.66,999.81Z" transform="translate(-27.36 111.06)"/><path id="Vector_3-3" data-name="Vector 3" class="cls-3" d="M246.31,963.26c-14.62,4.44-24,16-22.82,20s17.56,5.53,30.14,3.9c16.54-2.13,31.22-18.54,31.22-18.54S260.94,958.81,246.31,963.26Z" transform="translate(-27.36 111.06)"/></g><g id="Emoji-4" data-name="Emoji"><path id="Vector-4" data-name="Vector" class="cls-1" d="M1048.86,963.31a72.22,72.22,0,0,0-90-49.27,73.32,73.32,0,0,0-49.33,90.68,72.21,72.21,0,0,0,90,49.28A73.33,73.33,0,0,0,1048.86,963.31Z" transform="translate(-27.36 111.06)"/><path id="Vector_2-4" data-name="Vector 2" class="cls-2" d="M998.66,923.34c.8-1.47,3.12-1.84,5.87-1.2,10.57-15.73,32-26.35,33-26.82a4.38,4.38,0,0,1,5.87,2,4.45,4.45,0,0,1-2.05,5.91c-.21.11-19.78,9.82-29.12,23.22,1.8,1.88,2.61,3.9,1.85,5.29-1.16,2.15-5.56,2-9.82-.34S997.5,925.48,998.66,923.34Z" transform="translate(-27.36 111.06)"/><path id="Vector_3-4" data-name="Vector 3" class="cls-3" d="M950.08,907.44s18.43,14.41,36.14,13.55c13.47-.65,30.27-5.33,30.8-9.72s-11.48-14.73-27.62-16.64S950.08,907.44,950.08,907.44Z" transform="translate(-27.36 111.06)"/></g><g id="Emoji-5" data-name="Emoji"><path id="Vector-5" data-name="Vector" class="cls-1" d="M1340.79,426.23a72.22,72.22,0,0,0-78.09-66.53A73.33,73.33,0,0,0,1196,438.47,72.22,72.22,0,0,0,1274.06,505,73.33,73.33,0,0,0,1340.79,426.23Z" transform="translate(-27.36 111.06)"/><path id="Vector_2-5" data-name="Vector 2" class="cls-2" d="M1299.76,376.88c1.08-1.27,3.43-1.16,6,0,13.54-13.25,36.71-19.29,37.76-19.56a4.38,4.38,0,0,1,5.33,3.19,4.44,4.44,0,0,1-3.21,5.37c-.23.06-21.36,5.6-33.23,16.82,1.39,2.21,1.77,4.35.74,5.56-1.57,1.86-5.85.82-9.55-2.33S1298.18,378.75,1299.76,376.88Z" transform="translate(-27.36 111.06)"/><path id="Vector_3-5" data-name="Vector 3" class="cls-3" d="M1255.42,351.45s15.12,17.86,32.63,20.61c13.32,2.1,30.72.94,32.14-3.26s-8.26-16.75-23.67-21.9S1255.42,351.45,1255.42,351.45Z" transform="translate(-27.36 111.06)"/></g><g id="Emoji-6" data-name="Emoji"><path id="Vector-6" data-name="Vector" class="cls-1" d="M693.28-66.24a72.21,72.21,0,0,0-99.41,25.31A73.32,73.32,0,0,0,619.63,59,72.21,72.21,0,0,0,719,33.73,73.32,73.32,0,0,0,693.28-66.24Z" transform="translate(-27.36 111.06)"/><path id="Vector_2-6" data-name="Vector 2" class="cls-2" d="M629.31-61.25c-.42-1.62,1-3.47,3.48-4.88-3-18.71,5.46-41.11,5.84-42.12a4.39,4.39,0,0,1,5.69-2.51,4.45,4.45,0,0,1,2.53,5.72c-.08.22-7.77,20.67-5.47,36.84,2.6.15,4.57,1.07,5,2.61.61,2.36-2.72,5.25-7.42,6.45S629.92-58.89,629.31-61.25Z" transform="translate(-27.36 111.06)"/><path id="Vector_3-6" data-name="Vector 3" class="cls-3" d="M582.93-39.76s23.31-2,35.67-14.72C628-64.15,637.11-79,634.51-82.6S616.06-85.54,603-75.94,582.93-39.76,582.93-39.76Z" transform="translate(-27.36 111.06)"/></g><g id="Emoji-7" data-name="Emoji" class="cls-4"><path id="Vector-7" data-name="Vector" class="cls-1" d="M282.93,131.39A68,68,0,0,0,358.1,70.83,69,69,0,0,0,297.37-5a68,68,0,0,0-75.16,60.56A69,69,0,0,0,282.93,131.39Z" transform="translate(-27.36 111.06)"/><path id="Vector_2-7" data-name="Vector 2" class="cls-2" d="M258.23,18.67c-3.55,2.86-7.6,3.73-9,1.94-.93-1.16-.52-3.17.84-5.21C239.15,4.54,219.43-1.21,219.21-1.27a4.19,4.19,0,0,1-2.88-5.14,4.13,4.13,0,0,1,5.1-2.86c1,.28,22.62,6.55,35,19.37,2.44-1,4.65-1.1,5.63.13C263.51,12,261.79,15.81,258.23,18.67Z" transform="translate(-27.36 111.06)"/><path id="Vector_3-7" data-name="Vector 3" class="cls-3" d="M265.89-17.89c-14.63,4.44-24,16-22.82,20S260.62,7.62,273.21,6c16.54-2.14,31.22-18.55,31.22-18.55S280.51-22.33,265.89-17.89Z" transform="translate(-27.36 111.06)"/></g><g id="Emoji-8" data-name="Emoji" class="cls-4"><path id="Vector-8" data-name="Vector" class="cls-1" d="M140.23,113.75A38,38,0,0,0,88.22,99a38.64,38.64,0,0,0-14.66,52.38,38.05,38.05,0,0,0,52,14.71A38.62,38.62,0,0,0,140.23,113.75Z" transform="translate(-27.36 111.06)"/><path id="Vector_2-8" data-name="Vector 2" class="cls-2" d="M109.75,99.13c.23-.85,1.38-1.31,2.87-1.3,3.57-9.33,13.35-17.31,13.79-17.67a2.31,2.31,0,0,1,3.25.36,2.34,2.34,0,0,1-.35,3.28c-.1.08-9,7.37-12.23,15.35,1.15.76,1.81,1.7,1.58,2.5-.34,1.24-2.62,1.68-5.09,1S109.4,100.37,109.75,99.13Z" transform="translate(-27.36 111.06)"/><path id="Vector_3-8" data-name="Vector 3" class="cls-3" d="M82.92,96.68s11.17,5.24,20.16,2.71c6.84-1.92,14.92-6.3,14.67-8.62s-7.63-6.21-16.14-5.29S82.92,96.68,82.92,96.68Z" transform="translate(-27.36 111.06)"/></g><g id="Emoji-9" data-name="Emoji"><path id="Vector-9" data-name="Vector" class="cls-1" d="M965.34,467.66a72.21,72.21,0,0,0-80.86-63.12,73.33,73.33,0,0,0-63.29,81.57,72.2,72.2,0,0,0,80.87,63.11A73.31,73.31,0,0,0,965.34,467.66Z" transform="translate(-27.36 111.06)"/><path id="Vector_2-9" data-name="Vector 2" class="cls-2" d="M922.24,420.13c1-1.32,3.38-1.31,6-.24,13-13.82,35.86-20.84,36.89-21.15a4.36,4.36,0,0,1,5.46,2.95,4.45,4.45,0,0,1-3,5.51c-.23.07-21.1,6.5-32.48,18.22,1.48,2.15,2,4.27,1,5.52-1.5,1.94-5.81,1.08-9.64-1.91S920.74,422.06,922.24,420.13Z" transform="translate(-27.36 111.06)"/><path id="Vector_3-9" data-name="Vector 3" class="cls-3" d="M876.85,396.61s15.87,17.2,33.48,19.2c13.41,1.52,30.74-.39,32-4.64s-9-16.38-24.58-20.87S876.85,396.61,876.85,396.61Z" transform="translate(-27.36 111.06)"/></g><g id="Emoji-10" data-name="Emoji" class="cls-5"><path id="Vector-10" data-name="Vector" class="cls-1" d="M29.42,658.71a62.53,62.53,0,0,0,76.86,44.51,63.49,63.49,0,0,0,45-77.22,62.52,62.52,0,0,0-76.86-44.51A63.49,63.49,0,0,0,29.42,658.71Z" transform="translate(-27.36 111.06)"/><path id="Vector_2-10" data-name="Vector 2" class="cls-2" d="M118.05,600.21c-3.64-2.11-5.73-5.3-4.66-7.12.69-1.19,2.55-1.5,4.75-1,5.73-12.94,4.14-31.78,4.12-32a3.85,3.85,0,0,1,3.46-4.17,3.78,3.78,0,0,1,4.14,3.43c.09.94,1.86,21.59-5.05,36.48,1.71,1.74,2.48,3.63,1.75,4.88C125.5,602.54,121.68,602.32,118.05,600.21Z" transform="translate(-27.36 111.06)"/><path id="Vector_3-10" data-name="Vector 3" class="cls-3" d="M152,594.69c-8.65-11.09-21.7-15.35-24.71-13s1.06,16.9,6.62,27.17c7.31,13.5,26.25,20.67,26.25,20.67S160.63,605.78,152,594.69Z" transform="translate(-27.36 111.06)"/></g><g id="Emoji-11" data-name="Emoji"><path id="Vector-11" data-name="Vector" class="cls-1" d="M220.42,1316.19a72.22,72.22,0,0,0-75-70,73.31,73.31,0,0,0-70.26,75.63,72.23,72.23,0,0,0,75,70A73.33,73.33,0,0,0,220.42,1316.19Z" transform="translate(-27.36 111.06)"/><path id="Vector_2-11" data-name="Vector 2" class="cls-2" d="M181.7,1265c1.13-1.22,3.48-1,6,.3,14.13-12.62,37.56-17.59,38.62-17.8a4.37,4.37,0,0,1,5.18,3.43,4.46,4.46,0,0,1-3.45,5.22c-.24,0-21.6,4.6-34,15.27,1.28,2.27,1.57,4.43.49,5.59-1.66,1.79-5.89.55-9.44-2.76S180,1266.82,181.7,1265Z" transform="translate(-27.36 111.06)"/><path id="Vector_3-11" data-name="Vector 3" class="cls-3" d="M138.57,1237.58s14.29,18.54,31.65,22.09c13.22,2.7,30.65,2.34,32.26-1.79s-7.48-17.11-22.64-23S138.57,1237.58,138.57,1237.58Z" transform="translate(-27.36 111.06)"/></g><g id="Emoji-12" data-name="Emoji"><path id="Vector-12" data-name="Vector" class="cls-1" d="M608.26,795.49a72.21,72.21,0,0,0-28-98.67A73.32,73.32,0,0,0,481,725.33,72.23,72.23,0,0,0,509,824,73.32,73.32,0,0,0,608.26,795.49Z" transform="translate(-27.36 111.06)"/><path id="Vector_2-12" data-name="Vector 2" class="cls-2" d="M601.51,731.68c1.6-.46,3.5.94,5,3.35,18.61-3.52,41.24,4.32,42.26,4.68a4.38,4.38,0,0,1,2.67,5.61,4.44,4.44,0,0,1-5.65,2.69c-.22-.08-20.87-7.2-37-4.45-.07,2.61-.94,4.6-2.46,5-2.35.68-5.33-2.56-6.66-7.23S599.16,732.36,601.51,731.68Z" transform="translate(-27.36 111.06)"/><path id="Vector_3-12" data-name="Vector 3" class="cls-3" d="M578.74,685.92s2.66,23.25,15.7,35.25c9.93,9.14,25,17.83,28.55,15.12s2.43-18.52-7.53-31.35S578.74,685.92,578.74,685.92Z" transform="translate(-27.36 111.06)"/></g><g id="Emoji-13" data-name="Emoji" class="cls-4"><path id="Vector-13" data-name="Vector" class="cls-1" d="M1166,213.9a54.12,54.12,0,0,0,59.86-48.22,54.94,54.94,0,0,0-48.36-60.37,54.1,54.1,0,0,0-59.85,48.22A55,55,0,0,0,1166,213.9Z" transform="translate(-27.36 111.06)"/><path id="Vector_2-13" data-name="Vector 2" class="cls-2" d="M1146.33,124.14c-2.84,2.28-6.06,3-7.21,1.54-.74-.92-.41-2.52.68-4.14-8.67-8.65-24.38-13.23-24.55-13.28a3.33,3.33,0,0,1-2.29-4.09,3.28,3.28,0,0,1,4.06-2.28c.78.22,18,5.22,27.88,15.42,1.94-.83,3.7-.87,4.48.11C1150.53,118.85,1149.16,121.86,1146.33,124.14Z" transform="translate(-27.36 111.06)"/><path id="Vector_3-13" data-name="Vector 3" class="cls-3" d="M1152.42,95c-11.64,3.54-19.14,12.74-18.17,15.91s14,4.4,24,3.11c13.17-1.7,24.86-14.77,24.86-14.77S1164.07,91.49,1152.42,95Z" transform="translate(-27.36 111.06)"/></g><g id="Emoji-14" data-name="Emoji" class="cls-4"><path id="Vector-14" data-name="Vector" class="cls-1" d="M1350,811.56a54.12,54.12,0,0,0-5.31-76.68,54.94,54.94,0,0,0-77.14,5.56,54.11,54.11,0,0,0,5.3,76.68A54.94,54.94,0,0,0,1350,811.56Z" transform="translate(-27.36 111.06)"/><path id="Vector_2-14" data-name="Vector 2" class="cls-2" d="M1354.94,763.73c1.25-.09,2.42,1.23,3.13,3.22,14.19.31,29.57,9.55,30.26,10a3.29,3.29,0,0,1,1.09,4.53,3.34,3.34,0,0,1-4.56,1.1c-.15-.1-14.19-8.51-26.42-9-.46,1.9-1.4,3.22-2.59,3.31-1.82.13-3.51-2.71-3.76-6.34S1353.12,763.87,1354.94,763.73Z" transform="translate(-27.36 111.06)"/><path id="Vector_3-14" data-name="Vector 3" class="cls-3" d="M1345.32,726.67s-1.63,17.45,6.07,28.27c5.86,8.23,15.6,16.94,18.59,15.49s4.64-13.19-.68-24.14S1345.32,726.67,1345.32,726.67Z" transform="translate(-27.36 111.06)"/></g></svg>