<svg width="70" height="64" viewBox="0 0 70 64" fill="none" xmlns="http://www.w3.org/2000/svg">
<g id="icon-react" clip-path="url(#clip0_60_11538)">
<path id="Vector" d="M34.9999 38.7725C38.6723 38.7725 41.6493 35.7404 41.6493 32C41.6493 28.2597 38.6723 25.2275 34.9999 25.2275C31.3276 25.2275 28.3506 28.2597 28.3506 32C28.3506 35.7404 31.3276 38.7725 34.9999 38.7725Z" fill="#087EA4"/>
<g id="Group">
<path id="Vector_2" d="M34.9999 47.2379C53.3616 47.2379 68.2467 40.4156 68.2467 31.9998C68.2467 23.584 53.3616 16.7617 34.9999 16.7617C16.6383 16.7617 1.75317 23.584 1.75317 31.9998C1.75317 40.4156 16.6383 47.2379 34.9999 47.2379Z" stroke="#087EA4" stroke-width="3"/>
<path id="Vector_3" d="M22.0433 39.619C31.2242 55.8152 44.4676 65.5336 51.6234 61.3257C58.7791 57.1178 57.1375 40.5771 47.9566 24.3809C38.7758 8.18475 25.5324 -1.53366 18.3766 2.67422C11.2209 6.88211 12.8625 23.4228 22.0433 39.619Z" stroke="#087EA4" stroke-width="3"/>
<path id="Vector_4" d="M22.0432 24.3811C12.8623 40.5772 11.2207 57.118 18.3764 61.3259C25.5322 65.5337 38.7756 55.8153 47.9565 39.6192C57.1373 23.423 58.7789 6.88229 51.6232 2.67441C44.4674 -1.53348 31.224 8.18494 22.0432 24.3811Z" stroke="#087EA4" stroke-width="3"/>
</g>
</g>
<defs>
<clipPath id="clip0_60_11538">
<rect width="69.8182" height="64" fill="white" transform="translate(0.0908203)"/>
</clipPath>
</defs>
</svg>
