<?xml version="1.0" encoding="utf-8"?>
<svg width="1440" height="82" viewBox="0 0 1440 82" fill="none" xmlns="http://www.w3.org/2000/svg">
  <path fill-rule="evenodd" clip-rule="evenodd" d="M -0.007 -0.002 L 30.978 1.354 C 66.616 1.045 136.801 18.525 205.201 23.059 C 274.8 27.592 343.202 27.592 411.6 21.548 C 480 15.503 548.401 3.411 616.801 0.389 C 685.2 -2.633 741.001 13.031 809.4 14.541 C 877.8 16.054 960 3.411 1028.4 9.457 C 1096.799 15.503 1165.201 30.616 1234.799 30.616 C 1303.199 30.616 1362.317 6.384 1396.079 4.316 L 1440 0 L 1440.001 82 L 1405.2 82 C 1371.6 82 1303.199 82 1234.799 82 C 1165.201 82 1096.799 82 1028.4 82 C 960 82 891.6 82 823.2 82 C 754.802 82 685.2 82 616.801 82 C 548.401 82 480 82 411.6 82 C 343.202 82 274.8 82 205.201 82 C 136.801 82 68.4 82 34.801 82 L 0 82 L -0.007 -0.002 Z" fill="#0099FF" style=""/>
</svg>