<?xml version="1.0" encoding="utf-8"?>
<svg width="1440" height="61" viewBox="0 0 1440 61" fill="none" xmlns="http://www.w3.org/2000/svg">
  <path fill-rule="evenodd" clip-rule="evenodd" d="M -0.013 -0.005 L 82.089 10.077 C 117.819 13.77 138.208 13.052 205.2 21.465 C 272.657 29.936 281.6 38.555 350 34.5 C 418.4 30.445 470.1 8.287 538.5 6.259 C 606.9 4.232 725.6 33.486 794 34.5 C 862.4 35.514 1024.1 7.273 1092.5 11.328 C 1160.9 15.383 1239.511 38.423 1309 34.5 C 1375.522 30.745 1374.958 8.444 1440 0 L 1440 61 L 1405.2 61 C 1371.6 61 1303.2 61 1234.8 61 C 1165.2 61 1096.8 61 1028.4 61 C 960 61 891.6 61 823.2 61 C 754.8 61 685.2 61 616.8 61 C 548.4 61 480 61 411.6 61 C 343.2 61 274.8 61 205.2 61 C 136.8 61 68.4 61 34.8 61 L 0 61 L -0.013 -0.005 Z" fill="#0090EF"/>
</svg>